<svg xmlns="http://www.w3.org/2000/svg" width="251" height="20" viewBox="0 0 251 20">
    <path fill-rule="evenodd" d="M27.606.278v11.305c0 3.528 1.834 5.693 4.778 5.693 2.945 0 4.778-2.165 4.778-5.693V.278h2.805v11.277c0 5.305-3.028 8.444-7.583 8.444s-7.582-3.139-7.582-8.444V.278h2.804zM49.676 0C53.4 0 55.65 2.25 55.65 5.806h-2.944v-.361c0-1.778-1.25-2.75-3.028-2.75-1.806 0-2.972.972-2.972 2.556 0 1.388.777 2.083 3.222 3l1.111.416c1.722.639 2.75 1.194 3.583 2.083.833.888 1.333 1.889 1.333 3.471 0 3.084-2.583 5.778-6.249 5.778-3.612 0-6.416-2.278-6.416-6.223h2.944v.28c0 2.026 1.444 3.249 3.472 3.249 2.027 0 3.305-1.167 3.305-2.972 0-2.056-1.306-2.444-3.555-3.277l-1.334-.5c-1.471-.557-2.471-1.084-3.194-1.973-.722-.888-1.167-1.888-1.167-3.277 0-2.5 1.862-5.306 5.917-5.306zM92.34 0c3.722 0 5.972 2.25 5.972 5.806h-2.944v-.361c0-1.778-1.25-2.75-3.028-2.75-1.806 0-2.972.972-2.972 2.556 0 1.388.778 2.083 3.222 3l1.111.416c1.72.639 2.75 1.194 3.583 2.083.833.888 1.333 1.889 1.333 3.471 0 3.084-2.583 5.778-6.249 5.778-3.611 0-6.416-2.278-6.416-6.223h2.945v.28c0 2.026 1.444 3.249 3.471 3.249s3.305-1.167 3.305-2.972c0-2.056-1.305-2.444-3.555-3.277l-1.334-.5c-1.471-.557-2.471-1.084-3.194-1.973-.721-.888-1.166-1.888-1.166-3.277 0-2.5 1.861-5.306 5.916-5.306zM62.323.28v19.442H59.49V.279h2.832zM69.71.277l10.14 15.138V.278h2.778v19.443h-3.112L69.407 4.667V19.72H66.63V.278h3.082zm41.12 0l7.86 19.443h-2.861l-2.195-5.416h-8.666l-2.194 5.416h-2.86l7.86-19.443h3.056zM3.304.278l6.973 11.304L17.276.28h3.304V19.72h-2.775V4.388l-6.251 10.085H8.999L2.777 4.388V19.72H0V.28h3.304zm179.932.07c3.602 0 5.745 2.176 5.745 5.678v.082h-1.126v-.43c0-2.601-1.759-4.282-4.62-4.282-2.239 0-4.565 1.503-4.565 3.935 0 1.924 1.357 2.701 4.03 3.632l1.072.374c2.99 1.047 5.37 2.07 5.37 5.152 0 2.515-2.202 5.117-6.041 5.117-3.673 0-6.146-2.5-6.146-6.081v-.082h1.127v.35c0 2.717 2.105 4.765 5.019 4.765 2.714 0 4.914-1.851 4.914-4.042 0-2.184-1.78-3.168-4.591-4.114l-1.124-.374c-2.518-.84-4.757-1.903-4.757-4.645 0-2.501 1.895-5.034 5.693-5.034zm-23.048.267V11.26c0 4.456 2.318 7.298 6.198 7.298 3.881 0 6.199-2.842 6.199-7.298V.615h1.1v10.618c0 5.281-2.71 8.373-7.299 8.373-4.588 0-7.299-3.092-7.299-8.373V.615h1.1zM225.04.35c3.603 0 5.745 2.175 5.745 5.677v.082h-1.125v-.43c0-2.601-1.758-4.282-4.62-4.282-2.24 0-4.564 1.503-4.564 3.935 0 1.924 1.356 2.701 4.028 3.632l1.072.374c2.99 1.047 5.37 2.07 5.37 5.152 0 2.515-2.202 5.117-6.04 5.117-3.674 0-6.147-2.5-6.147-6.081v-.082h1.127v.35c0 2.717 2.106 4.765 5.02 4.765 2.714 0 4.914-1.851 4.914-4.042 0-2.184-1.78-3.168-4.592-4.114l-1.123-.374c-2.519-.84-4.757-1.903-4.757-4.645 0-2.501 1.895-5.034 5.692-5.034zm-30.284.257v18.743h-1.1V.606h1.1zm47.571.01l8.632 18.721h-1.252l-2.65-5.784H236.69l-2.652 5.784h-1.41l8.818-18.72h.881zm-41.095 0l12.946 17.33V.616h1.1v18.722h-1.381L200.978 2.06v17.277h-1.1V.616h1.354zm-70.111 0l5.792 17.366 5.56-17.366h1.497l5.611 17.366L155.32.616h1.19l-6.355 18.721h-1.196l-5.725-17.472-5.717 17.472h-1.25L129.933.617h1.189zm110.753 1.616l-4.708 10.274h9.414l-4.706-10.274zm-132.572 1.38l-3.22 7.944h6.443l-3.223-7.944z"/>
</svg>
